PathFileType	4	(X/Y/Z)	s07c0401.trc
DataRate	CameraRate	NumFrames	NumMarkers	Units	OrigDataRate	OrigDataStartFrame	OrigNumFrames
200	200	4	48	mm	200	1500	2000
Frame#	Time	racr			lacr			c7			jug			rlel			rdr			llel			ldr			s2			lic			ric			lasi			rasi			rpsi			lpsi			rgt			lgt			rth1			rth2			rth3			rth4			rlfc			rmfc			rsh1			rsh2			rsh3			rsh4			rlmal			rcal			rtoe			rmt5			lth1			lth2			lth4			lth3			llfc			lmfc			lsh1			lsh2			lsh3			lsh4			llmal			lcal			ltoe			lmt5			SBIKE			LBIKE			RBIKE			
		X1	Y1	Z1	X2	Y2	Z2	X3	Y3	Z3	X4	Y4	Z4	X5	Y5	Z5	X6	Y6	Z6	X7	Y7	Z7	X8	Y8	Z8	X9	Y9	Z9	X10	Y10	Z10	X11	Y11	Z11	X12	Y12	Z12	X13	Y13	Z13	X14	Y14	Z14	X15	Y15	Z15	X16	Y16	Z16	X17	Y17	Z17	X18	Y18	Z18	X19	Y19	Z19	X20	Y20	Z20	X21	Y21	Z21	X22	Y22	Z22	X23	Y23	Z23	X24	Y24	Z24	X25	Y25	Z25	X26	Y26	Z26	X27	Y27	Z27	X28	Y28	Z28	X29	Y29	Z29	X30	Y30	Z30	X31	Y31	Z31	X32	Y32	Z32	X33	Y33	Z33	X34	Y34	Z34	X35	Y35	Z35	X36	Y36	Z36	X37	Y37	Z37	X38	Y38	Z38	X39	Y39	Z39	X40	Y40	Z40	X41	Y41	Z41	X42	Y42	Z42	X43	Y43	Z43	X44	Y44	Z44	X45	Y45	Z45	X46	Y46	Z46	X47	Y47	Z47	X48	Y48	Z48	
1500	7.5000	793.085655	1347.030529	-110.580452	787.234810	1359.454059	-439.957474	798.046579	1411.396966	-272.870514	720.961572	1277.555566	-283.729842	517.180373	1146.380434	21.792341	696.747907	945.349805	-58.506693	505.312760	1150.254326	-523.275541	686.509225	940.996209	-438.706196	190.814605	1299.457359	-206.781652	323.399769	1336.113807	-362.004149	392.055330	1283.419742	-93.902314	343.495748	1255.896797	-361.768603	394.862458	1231.102410	-118.031841	238.489540	1324.563932	-161.753354	225.866353	1347.114485	-266.155936	317.214950	1162.823304	-52.887003	246.745008	1197.811546	-405.810181	380.409213	1023.380436	-67.932639	420.285084	947.214604	-83.376170	431.485778	863.993196	-84.725021	452.639124	960.241435	-105.641677	430.603542	720.081224	-112.466757	406.037655	711.147109	-214.121977	325.176292	623.083997	-76.096940	276.164822	549.706493	-89.565094	201.480317	506.449064	-77.101511	284.298965	540.993101	-128.893818	97.419917	417.083878	-70.023207	36.907675	463.336566	-101.487975	99.444662	180.250421	-128.730580	51.108811	243.016623	-54.707630	320.626283	1094.412003	-419.816994	395.209934	1048.212911	-430.079627	422.243345	1071.867579	-423.595874	437.135813	969.409269	-430.647574	541.064833	822.898699	-408.770964	538.668123	804.910433	-310.383616	449.384537	701.961932	-423.033924	419.942815	623.536706	-400.519486	347.399492	567.509232	-403.156358	424.473257	625.320778	-359.496416	259.623954	466.754341	-398.579196	180.963623	444.857651	-362.877931	456.752645	356.961459	-366.998451	371.320877	351.040308	-430.112845	-262.176291	976.808056	-237.370034	-82.371727	79.336079	-435.175280	-82.290250	79.771051	-37.681276	
1501	7.5050	792.842624	1347.789862	-110.391399	787.648095	1356.913974	-440.231192	798.208987	1410.660030	-273.225028	721.223974	1276.706329	-282.958598	517.161726	1146.513848	21.448937	696.846879	945.042798	-58.066315	504.392180	1149.218964	-523.797670	686.207315	940.978894	-438.673712	191.597370	1299.121363	-205.759967	325.489414	1339.143099	-374.457334	392.860958	1283.970379	-93.990169	342.781995	1254.928522	-361.941211	395.710724	1231.710620	-118.356516	238.944184	1324.510103	-160.957824	225.864537	1346.678854	-264.904416	319.411057	1163.605813	-52.173672	245.263603	1196.569773	-404.557555	384.628673	1025.354813	-67.821375	425.362376	949.626898	-83.895868	437.773337	866.647422	-85.992109	457.932310	963.424763	-105.729521	437.358548	722.473462	-113.962590	411.923249	713.908941	-215.945445	331.607459	626.198178	-77.554211	280.561072	554.190469	-90.895632	204.921556	512.645891	-77.729604	287.798038	545.635288	-130.449794	98.943000	425.796466	-70.105602	39.609187	473.245199	-101.429623	96.155062	188.892060	-128.794178	48.930550	252.623893	-54.767174	317.460793	1091.878469	-419.177358	391.056417	1044.347046	-430.460868	418.627659	1067.548707	-424.099824	431.674810	964.788664	-430.598679	534.296978	817.728718	-409.461841	533.888987	799.315387	-311.118942	444.611203	695.706238	-423.953171	417.050538	616.395950	-401.523461	345.804158	558.912998	-404.090366	421.816446	618.130362	-360.553174	259.233221	456.001369	-399.922870	181.821057	433.102503	-363.225609	458.128627	346.681042	-367.012925	372.774232	340.131741	-430.189033	-262.127262	976.785734	-237.337752	-82.331612	79.281311	-435.207036	-82.279183	79.738376	-37.670361	
1502	7.5100	792.653744	1348.764528	-110.104338	788.074217	1354.587315	-440.414594	798.385105	1409.947256	-273.519184	721.712580	1275.672767	-282.028267	517.274462	1146.581863	20.900671	696.964187	944.724949	-57.843922	503.664265	1148.191637	-524.309744	685.972124	940.918562	-438.731730	191.975995	1298.556043	-204.709211	324.991531	1337.768093	-374.726976	393.646837	1284.230401	-94.025593	342.104619	1253.724152	-362.188274	396.530050	1232.138988	-118.586602	239.944708	1324.359176	-160.693538	225.986371	1345.970317	-265.079800	321.267458	1164.123897	-51.523670	243.937160	1195.032403	-403.384930	388.066696	1026.744885	-67.583227	429.871633	951.744108	-84.309516	443.193286	868.896707	-86.822151	462.292766	966.086870	-105.772548	443.818975	724.493403	-115.426128	417.173044	716.556127	-217.532664	336.971232	629.705821	-78.684352	283.671708	559.170229	-92.140929	207.272925	519.638221	-78.339175	290.366867	550.625109	-131.769595	99.362689	435.275927	-70.157575	40.786282	483.605542	-101.335687	94.278017	198.534783	-128.706200	47.520264	262.677633	-54.664912	314.149265	1088.900158	-418.386274	387.248661	1040.279920	-431.034521	414.818508	1062.884059	-424.623388	426.036082	959.818178	-430.381175	527.145826	812.387030	-410.331731	526.761303	793.456375	-312.354801	439.597356	689.129780	-424.636239	412.293752	609.600795	-403.467333	344.143203	550.192731	-404.768375	418.802412	610.832275	-361.359603	260.467292	443.734679	-398.283398	182.316809	421.666272	-363.774240	458.890258	336.346260	-367.022452	373.536438	329.160750	-430.126168	-262.172691	976.734085	-237.265741	-82.326894	79.275051	-435.197459	-82.330516	79.601565	-37.665817	
1503	7.5150	792.592048	1349.969558	-109.742190	788.552107	1352.320353	-440.560835	798.584037	1409.370026	-273.637358	722.253309	1274.990019	-281.209551	517.558855	1146.663293	20.216528	697.099832	944.297002	-58.220022	502.671178	1146.932891	-524.354350	685.829706	940.793940	-438.913996	192.370558	1297.726321	-203.951798	324.618773	1336.044305	-374.864924	394.385347	1284.260109	-94.118974	341.697527	1252.229709	-362.340886	397.179350	1232.122633	-118.708687	240.588040	1323.945498	-160.336977	226.043489	1344.963036	-264.683991	322.921598	1164.435579	-50.834921	242.851242	1193.312669	-402.394841	390.729199	1027.906701	-67.416914	433.841153	953.569045	-84.616706	447.766246	870.809336	-87.216573	465.631597	968.201960	-105.811473	450.288148	726.068652	-117.041555	422.100187	719.073982	-218.807733	341.603353	633.744473	-79.685779	286.134159	564.955914	-93.243934	208.718914	527.609592	-79.091764	292.470706	556.050510	-132.877955	99.118327	445.388348	-70.381409	40.831260	494.275184	-101.424848	93.625613	208.895419	-128.396376	46.641960	273.472919	-54.564156	310.965907	1085.742665	-417.666742	382.386325	1035.289315	-429.762801	410.670196	1057.822608	-425.827134	420.264481	954.468863	-429.954075	519.953627	806.356131	-410.528965	520.156559	787.368561	-312.952572	434.388276	682.320497	-424.943903	408.508160	602.184012	-404.002937	341.815875	541.640580	-405.994309	416.583800	602.808377	-362.586244	257.518709	434.693998	-400.304978	182.281257	410.117651	-363.781068	459.168520	326.031210	-367.268780	373.800828	318.099392	-429.953554	-262.272710	976.639993	-237.147115	-82.354810	79.240576	-435.199573	-82.356449	79.495915	-37.627414	
